<?xml version="1.0" encoding="UTF-8" standalone="no"?><!DOCTYPE svg PUBLIC "-//W3C//DTD SVG 1.1//EN" "http://www.w3.org/Graphics/SVG/1.1/DTD/svg11.dtd"><svg width="100%" height="100%" viewBox="0 0 1330 1396" version="1.1" xmlns="http://www.w3.org/2000/svg" xmlns:xlink="http://www.w3.org/1999/xlink" xml:space="preserve" xmlns:serif="http://www.serif.com/" style="fill-rule:evenodd;clip-rule:evenodd;stroke-linejoin:round;stroke-miterlimit:2;"><path d="M161.022,555.251l0.379,1.089c5.598,17.525 -4.085,36.298 -21.61,41.896c-29.845,9.534 -45.281,-5.712 -51.282,-17.41c-4.288,-8.358 -7.853,-25.354 5.559,-46.43c45.402,-71.347 130.371,-114.154 211.591,-127.691c87.723,-14.62 146.82,29.042 186.306,67.486c13.047,12.703 28.958,28.442 33.149,32.593c14.31,3.742 24.881,16.77 24.881,32.248c0,18.397 -14.936,33.333 -33.333,33.333c-7.523,0 -16.138,-2.058 -25.256,-7.657c-8.315,-5.106 -18.797,-15.112 -31.159,-27.83c-27.653,-28.448 -71.018,-76.515 -143.628,-64.413c-57.486,9.581 -118.328,36.351 -155.597,82.786Z"/><path d="M117.416,603.094c-7.992,-5.286 -13.658,-13.956 -14.769,-24.215c-1.625,-14.999 3.395,-22.892 5.611,-26.202c9.081,-13.56 21.318,-17.614 36.009,-14.105c4.55,1.086 11.437,3.629 17.975,10.764c4.403,4.804 14.726,25.929 19.81,32.741c18.74,25.109 52.273,37.698 82.424,43.573c80.222,15.632 161.335,-19.704 215.356,-73.725c13.009,-13.008 34.132,-13.008 47.141,0c13.008,13.009 13.008,34.132 -0,47.141c-68.877,68.876 -172.966,111.951 -275.248,92.02c-45.658,-8.897 -94.722,-31.111 -123.1,-69.134c-2.343,-3.139 -7.292,-11.796 -11.209,-18.858Z"/><path d="M279.058,461.735c-23.125,29.104 -36.286,71.683 -33.897,111.804c2.609,43.823 23.105,84.086 64.33,104.699c16.455,8.227 36.494,1.547 44.721,-14.908c8.228,-16.455 1.548,-36.493 -14.907,-44.721c-18.876,-9.438 -26.401,-28.967 -27.595,-49.032c-1.415,-23.76 5.849,-49.133 19.544,-66.369c11.445,-14.404 9.043,-35.389 -5.361,-46.834c-14.404,-11.445 -35.39,-9.043 -46.835,5.361Z"/><path d="M288.688,503.062c10.634,6.043 16.509,21.222 21.349,37.491c8.899,29.915 11.133,66.309 1.121,86.333c-8.227,16.455 -1.547,36.494 14.908,44.722c16.454,8.227 36.493,1.548 44.721,-14.907c15.677,-31.354 17.084,-88.316 3.149,-135.157c-10.391,-34.93 -29.479,-63.47 -52.311,-76.444c-15.995,-9.09 -36.361,-3.483 -45.45,12.512c-9.089,15.995 -3.482,36.361 12.513,45.45Z"/><path d="M841.947,521.017c16.063,-13.21 45.522,-36.922 56.213,-42.268c39.207,-19.603 129.402,-50.65 199.016,-48.662c37.036,1.058 68.742,11.619 89.46,32.336c13.009,13.009 13.009,34.132 -0,47.141c-13.009,13.009 -34.132,13.009 -47.14,-0c-14.631,-14.631 -40.921,-14.473 -68.728,-11.98c-53.908,4.834 -114.236,26.515 -142.793,40.794c-13.393,6.696 -56.519,44.778 -59.118,46.56c-11.159,7.653 -20.128,5.966 -22.319,5.746c-16.071,-1.619 -24.475,-10.714 -28.41,-23.007c-1.051,-3.283 -6.207,-16.372 5.946,-31.283c0.463,-0.568 3.578,-3.891 10.71,-10.393c2.212,-2.016 4.622,-3.679 7.163,-4.984Z"/><path d="M892.857,610.377c4.219,4.869 10.788,8.637 17.721,12.183c16.116,8.245 35.062,13.686 48.436,16.361c78.916,15.783 137.365,-15.969 205.719,-50.146c16.455,-8.227 36.494,-1.548 44.721,14.907c8.228,16.455 1.548,36.494 -14.907,44.722c-82.258,41.128 -153.64,74.883 -248.607,55.889c-32.746,-6.549 -86.917,-27.085 -108.122,-56.084c-1.148,-1.57 -11.654,-21.17 -17.42,-36.11c-4.123,-10.684 -5.566,-20.207 -5.378,-24.843c0.67,-16.458 9.805,-25.014 18.289,-29.509c6.741,-3.572 21.223,-9.733 39.298,4.53c9.522,7.514 13.841,19.192 12.408,30.418l7.842,17.682Zm-60.423,5.077l-1.125,-0.842c0.378,0.298 0.753,0.579 1.125,0.842Z"/><path d="M1011.36,619.244c14.837,3.365 25.922,16.645 25.922,32.494c0,18.397 -14.936,33.334 -33.333,33.334c-14.82,-0 -26.231,-4.393 -35.173,-10.986c-12.343,-9.102 -20.675,-23.354 -23.567,-41.858c-6.229,-39.859 18.73,-108.746 24.825,-122.93c7.263,-16.903 26.883,-24.729 43.785,-17.466c16.903,7.263 24.73,26.882 17.467,43.785c-3.311,7.706 -14.598,36.499 -19.023,63.379c-1.004,6.098 -1.017,14.9 -0.903,20.248Z"/><path d="M978.053,500.475c-1.725,14.427 1.572,27.924 7.694,43.479c7.495,19.044 19.523,44.628 5.755,99.7c-4.462,17.848 6.406,35.96 24.254,40.422c17.848,4.462 35.96,-6.405 40.422,-24.253c16.802,-67.207 5.819,-103.541 -4.19,-129.631c-2.157,-5.623 -4.309,-10.653 -6.011,-15.412c-0.809,-2.262 -1.993,-4.182 -1.729,-6.39c2.184,-18.267 -10.873,-34.871 -29.14,-37.055c-18.267,-2.184 -34.871,10.873 -37.055,29.14Z"/><path d="M325.714,1013.84c0.407,-4.481 1.752,-9.097 4.252,-13.8c2.447,-4.603 6.92,-10.401 14.366,-15.615c10.086,-7.063 31.619,-15.836 50.239,-20.855c15.483,-4.174 29.397,-5.328 35.897,-4.413c10.727,1.51 17.531,6.503 21.723,10.929c5.593,5.904 8.691,12.891 9.359,20.903c0.507,6.085 -0.199,13.911 -5.84,22.551c-8.243,12.628 -23.619,17.823 -37.38,13.74l-16.441,5.382c-0.19,1.264 -0.439,2.436 -0.7,3.504c-1.781,7.286 -6.003,15.327 -15.158,22.041c-5.906,4.331 -20.039,8.829 -33.913,17.125c-16.985,10.156 -38.273,22.034 -54.582,33.687c-4.248,3.035 -9.278,7.432 -12.116,9.999c0.634,2.024 1.768,4.138 2.878,6.398c3.913,7.969 9.915,16.137 16.908,24.088c14.037,15.959 32.1,30.831 48.765,40.676c8.181,4.834 15.613,8.713 21.673,9.425c8.774,1.03 22.051,-2.366 37.502,-7.195c29.172,-9.116 64,-25.059 93.165,-43.267c15.188,-9.482 28.818,-19.517 38.897,-29.604c5.524,-5.53 10.659,-9.996 11.383,-15.064c0.918,-6.424 -0.253,-19.465 -0.253,-19.465c-1.207,-17.164 10.848,-32.427 27.825,-35.229c16.976,-2.801 33.296,7.78 37.667,24.422c-0,-0 6.872,26.206 18.96,49.72c3.435,6.682 7.268,13.169 11.636,18.429c1.844,2.22 3.373,4.52 5.566,5.37c67.447,26.149 165.494,26.188 235.974,17.866c35.855,-4.234 64.791,-31.125 79.029,-62.531c13.134,-28.972 14.11,-63.02 -9.189,-86.319c-13.008,-13.009 -13.008,-34.131 0,-47.14c13.009,-13.009 34.132,-13.009 47.141,-0c43.638,43.638 47.367,106.721 22.767,160.985c-23.493,51.821 -72.768,94.226 -131.931,101.212c-80.05,9.452 -191.283,7.785 -267.889,-21.914c-16.049,-6.221 -31.488,-20.82 -43.58,-39.965l-0.613,-0.996c-6.201,6.159 -13.195,12.24 -20.92,18.122c-40.135,30.557 -99.445,58.875 -144.39,71.573c-23.015,6.502 -42.981,8.792 -56.526,7.201c-29.137,-3.423 -79.578,-34.608 -112.716,-72.281c-25.558,-29.055 -39.466,-61.895 -36.364,-86.711c1.424,-11.397 8.762,-25.73 23.584,-39.054c18.287,-16.44 50.831,-34.885 75.536,-49.656c2.39,-1.429 5.062,-2.883 7.809,-4.274Zm72.413,-33.713c-1.355,2.581 -2.239,5.073 -2.755,7.461c0.602,-2.548 1.517,-5.053 2.755,-7.461Zm0.514,-0.985l-0.414,0.794l0.638,-1.162l-0.224,0.368Z"/><path d="M1198.58,916.614c4.31,-2.044 9.129,-3.184 14.212,-3.184c15.592,0 22.556,8.206 25.165,11.108c7.262,8.077 9.699,17.266 8.182,27.302c-0.47,3.107 -2.383,19.31 -22.228,26.724c-9.322,3.482 -83.713,21.612 -129.228,31.507c-30.656,6.664 -126.781,35.128 -188.661,60.935c-18.481,7.707 -39.543,19.957 -41.501,21.104c-11.201,13.678 -31.323,16.267 -45.659,5.606c-14.763,-10.978 -17.835,-31.877 -6.856,-46.639c8.025,-10.791 33.375,-27.013 68.355,-41.601c65.643,-27.376 167.641,-57.481 200.16,-64.55c38.244,-8.314 105.627,-25.186 118.059,-28.312Zm-6.646,56.134c3.546,3.145 9.417,6.824 18.809,7.28c-7.098,-0.429 -13.599,-3.084 -18.809,-7.28Z"/><path d="M894.658,1145.55l-0.489,0.393c-14.625,11.162 -35.56,8.351 -46.721,-6.274c-13.051,-17.098 -9.571,-31.655 -3.057,-42.39c4.389,-7.233 15.17,-17.495 35.313,-19.384c37.264,-3.494 156.923,21.09 160.481,21.786c71.128,13.917 150.483,24.457 219.609,47.499c17.453,5.818 26.899,24.711 21.082,42.164c-5.818,17.453 -24.711,26.899 -42.164,21.082c-66.494,-22.165 -142.908,-31.932 -211.327,-45.318c-2.661,-0.521 -102.297,-15.108 -132.727,-19.558Zm11.021,-36.303c-0.914,-3.196 -2.58,-6.545 -5.237,-10.025c2.372,3.108 4.113,6.5 5.237,10.025Z"/><path d="M399.15,1101.66c-3.356,-2.272 -8.985,-5.884 -14.003,-8.315c-19.845,-9.609 -47.711,-18.727 -78.776,-27.394c-106.471,-29.704 -247.522,-53.92 -265.386,-62.852c-14.372,-7.186 -17.397,-17.733 -18.671,-23.777c-2.334,-11.078 -0.292,-22.571 10.758,-32.332c2.891,-2.554 8.307,-6.358 16.555,-8.271c5.763,-1.336 17.454,-2.083 22.839,-2.083c11.372,0 21.421,5.707 27.433,14.414c18.019,3.838 42.635,8.597 70.202,14.407c84.471,17.803 194.036,42.688 247.159,69.395c18.971,9.537 32.142,20.282 39.182,30.148c9.911,13.89 11.936,28.179 7.791,42.232c-5.206,17.645 -23.757,27.745 -41.403,22.539c-13.197,-3.893 -22.173,-15.251 -23.68,-28.111Z"/><path d="M381.692,1100.42c5.306,-9.425 15.095,-16.092 26.683,-16.917c13.318,-0.948 21.319,0.37 24.842,1.423c8.498,2.542 13.476,7.009 16.638,10.678c8.781,10.19 11.108,21.803 5.706,35.037c-1.634,4.004 -7.877,14.913 -24.751,22.336c-29.982,13.189 -145.23,46.153 -211.642,80.748c-12.522,6.523 -27.258,17.875 -31.082,20.89c-2.901,15.441 -16.469,27.134 -32.747,27.134c-18.397,0 -33.334,-14.936 -33.334,-33.333c0,-10.566 3.427,-21.781 11.596,-32.788c9.716,-13.092 29.051,-27.632 54.768,-41.029c56.253,-29.303 146.792,-57.692 193.323,-74.179Z"/><path d="M433.507,1201.29c-3.847,61.806 17.484,104.867 49.834,132.993c46.337,40.287 118.884,49.25 181.192,32.381c74.327,-20.124 130.349,-75.795 122.084,-146.145c-2.147,-18.271 -18.724,-31.363 -36.995,-29.216c-18.272,2.147 -31.363,18.724 -29.216,36.995c4.521,38.482 -32.638,63.008 -73.296,74.016c-41.102,11.128 -89.461,8.235 -120.028,-18.342c-18.92,-16.449 -29.287,-42.392 -27.037,-78.54c1.143,-18.362 -12.836,-34.197 -31.198,-35.34c-18.361,-1.143 -34.197,12.836 -35.34,31.198Z"/><path d="M35.949,144.506c-0.377,-2.511 -2.674,-18.01 -3.102,-23.633c-0.679,-8.917 1.074,-15.633 2.601,-19.366c5.821,-14.238 16.407,-19.929 27.959,-21.193c6.205,-0.679 17.468,-1.005 29.315,10.842c6.894,6.894 13.918,20.168 17.98,38.731c5.374,24.554 7.851,62.735 14.046,94.148c1.865,9.459 6.591,22.221 8.572,27.349c14.632,3.512 25.518,16.696 25.518,32.401c0,18.397 -14.936,33.334 -33.333,33.334c-18.371,-0 -34.954,-9.475 -47.125,-27.687c-6.257,45.849 -8.721,73.232 -9.358,80.951c2.704,12.734 -2.234,26.436 -13.592,34.323c-9.529,6.618 -19.022,7.192 -27.708,4.904c-6.556,-1.727 -19.51,-6.088 -24.223,-24.78c-0.705,-2.796 -1.839,-10.735 -0.776,-25.835c1.502,-21.338 6.782,-66.26 20.258,-150.112c3.473,-21.612 9.751,-42.729 12.968,-64.377Zm12.789,201.857c-9.373,-4.238 -19.335,-4.051 -29.686,2.517c9.209,-5.636 20.224,-6.275 29.686,-2.517Z"/><path d="M1233.49,162.803c-20.208,40.104 -37.394,79.611 -38.63,94.174c-1.556,18.332 -17.701,31.951 -36.033,30.395c-18.331,-1.556 -31.95,-17.701 -30.395,-36.033c1.88,-22.149 31.54,-93.864 63.296,-152.625c22.444,-41.53 46.589,-76.289 60.734,-86.897c12.02,-9.015 23.846,-7.899 31.674,-5.216c7.209,2.472 16.681,7.164 21.364,22.061c0.693,2.205 1.849,6.478 1.811,14.223c-0.043,8.939 -1.713,33.534 -4.872,96.71c-0.557,11.13 -8.744,71.175 -6.021,116.163c0.463,7.655 2.36,17.264 3.646,23.097c11.37,3.992 20.175,14.036 21.978,26.782c2.576,18.216 -10.122,35.096 -28.338,37.672c-28.033,3.965 -53.362,-15.378 -60.964,-58.093c-6.195,-34.808 -2.231,-89.309 0.75,-122.413Z"/></svg>